# xmcd
#
# Track frame offsets:
#	150
#	11347
#	26548
#	42903
#	55028
#	69047
#	83864
#	103172
#	132352
#	138826
#	157889
#	180367
#	201811
#	204946
#
# Disc length: 3009 seconds
#
# Revision: 0
# Processed by: cddbd v1.5.2PL0 Copyright (c) Steve Scherf et al.
# Submitted via: dBpowerAMP V4.0
#
DISCID=a70bbf0e
DTITLE=Wilson Dixon - Greatest Hits
DYEAR=2006
DGENRE=Comedy
TTITLE0=Intro
TTITLE1=Ain't No Shame Being Country
TTITLE2=Fiberglass Rock
TTITLE3=Sean Penn
TTITLE4=Family Talk
TTITLE5=Darlene
TTITLE6=Never
TTITLE7=Folk Song
TTITLE8=Rodeo Clown
TTITLE9=Baby (Your Eyes are like the Ocean)
TTITLE10=Neon Sign 2
TTITLE11=The Mirror
TTITLE12=Thanks for Coming
TTITLE13=Philosophy
EXTD=
EXTT0=
EXTT1=
EXTT2=
EXTT3=
EXTT4=
EXTT5=
EXTT6=
EXTT7=
EXTT8=
EXTT9=
EXTT10=
EXTT11=
EXTT12=
EXTT13=
PLAYORDER=
